<?xml version="1.0" encoding="utf-8"?>
<!-- Generator: Adobe Illustrator 16.0.3, SVG Export Plug-In . SVG Version: 6.00 Build 0)  -->
<!DOCTYPE svg PUBLIC "-//W3C//DTD SVG 1.1//EN" "http://www.w3.org/Graphics/SVG/1.1/DTD/svg11.dtd">
<svg version="1.1" id="Layer_1" xmlns="http://www.w3.org/2000/svg" xmlns:xlink="http://www.w3.org/1999/xlink" x="0px" y="0px"
	 width="250px" height="58px" viewBox="0 0 250 58" enable-background="new 0 0 250 58" xml:space="preserve">
<polygon fill="#231F20" points="29.642,4.94 33.479,4.94 22.902,13.401 33.667,23.761 29.704,23.761 20.842,14.999 19.657,15.898 
	19.657,23.761 16.724,23.761 16.724,4.94 19.657,4.94 19.657,13.102 "/>
<path fill="#231F20" d="M41.9,19.042l-2.683,4.718h-3.152l11.233-19.62l11.233,19.62H55.38l-2.683-4.718H41.9z M47.298,9.283
	l-4.181,7.613h8.363L47.298,9.283z"/>
<path fill="#231F20" d="M78.248,23.761h-3.557l-6.927-7.962h-1.217v7.962h-2.934V4.94h3.558c2.09,0,4.337,0.024,6.209,0.873
	c1.966,0.924,3.089,2.696,3.089,4.494c0,2.695-2.246,4.942-5.647,5.268L78.248,23.761z M66.547,13.851h0.936
	c2.996,0,6.241-0.449,6.241-3.445c0-2.945-3.495-3.37-6.397-3.37h-0.779V13.851z"/>
<path fill="#231F20" d="M83.424,4.94h4.868c7.207,0,13.198,3.045,13.198,9.31c0,6.416-5.866,9.511-13.292,9.511h-4.773V4.94z
	 M86.357,21.614h1.029c5.991,0,11.17-1.798,11.17-7.265c0-5.492-5.179-7.264-11.17-7.264h-1.029V21.614z"/>
<path fill="#231F20" d="M110.847,19.042l-2.683,4.718h-3.151l11.232-19.62l11.233,19.62h-3.151l-2.684-4.718H110.847z
	 M116.245,9.283l-4.181,7.613h8.363L116.245,9.283z"/>
<path fill="#231F20" d="M143.013,8.509c-0.874-1.172-1.996-1.772-3.775-1.772c-1.872,0-3.931,1.023-3.931,2.671
	c0,1.473,1.809,2.247,3.275,2.696l1.685,0.524c3.339,1.049,5.836,2.521,5.836,5.666c0,3.421-3.309,5.867-7.521,5.867
	c-3.807,0-6.771-2.246-7.271-5.267l2.964-0.498c-0.03,2.071,2.028,3.568,4.556,3.568c2.526,0,4.337-1.698,4.337-3.67
	c0-2.021-2.027-2.896-4.055-3.569l-1.624-0.549c-2.684-0.923-5.116-2.147-5.116-4.768c0-3.046,3.37-4.868,6.927-4.868
	c2.622,0,4.773,1.023,6.053,2.846L143.013,8.509z"/>
<polygon fill="#231F20" points="166.317,12.528 166.317,4.94 169.251,4.94 169.251,23.761 166.317,23.761 166.317,14.725 
	155.116,14.725 155.116,23.761 152.184,23.761 152.184,4.94 155.116,4.94 155.116,12.528 "/>
<rect x="176.518" y="4.94" fill="#231F20" width="2.932" height="18.821"/>
<path fill="#231F20" d="M190.308,19.042l-2.684,4.718h-3.153l11.234-19.62l11.232,19.62h-3.153l-2.683-4.718H190.308z
	 M195.705,9.283l-4.183,7.613h8.362L195.705,9.283z"/>
<polygon fill="#231F20" points="211.738,4.041 229.398,18.843 229.398,4.94 232.331,4.94 232.331,24.534 214.671,9.732 
	214.671,23.761 211.738,23.761 "/>
<path fill="#231F20" d="M16.761,53.711v-18.82h4.712c1.779,0,3.463,0.098,4.868,1.098c1.435,0.998,1.965,2.396,1.965,3.895
	c0,1.721-0.842,2.994-2.714,3.844c2.901,0.475,4.867,2.346,4.867,4.742c0,1.521-0.718,2.895-2.185,3.895
	c-1.653,1.123-3.4,1.348-5.491,1.348H16.761z M18.259,43.428h2.59c1.591,0,2.869,0.074,4.212-0.701
	c1.342-0.773,1.748-1.723,1.748-3.018c0-1.225-0.592-2.422-1.934-3.098c-1.187-0.6-2.653-0.6-4.025-0.6h-2.59V43.428z
	 M18.259,52.588h3.588c1.654,0,3.37,0.049,4.805-0.725c1.436-0.773,2.31-1.947,2.31-3.344c0-1.375-0.842-2.746-2.434-3.371
	c-1.435-0.572-3.4-0.6-4.961-0.6h-3.308V52.588z"/>
<polygon fill="#231F20" points="59.192,36.012 59.192,42.852 68.677,42.852 68.677,43.975 59.192,43.975 59.192,52.588 
	68.926,52.588 68.926,53.711 57.693,53.711 57.693,34.891 68.926,34.891 68.926,36.012 "/>
<path fill="#231F20" d="M98.992,47.521l-3.152,6.189h-1.528l9.86-19.445L114,53.711h-1.528l-3.151-6.189H98.992z M104.172,37.311
	l-4.618,9.086h9.203L104.172,37.311z"/>
<path fill="#231F20" d="M152.779,34.891h1.497v11.73c0,1.922,0,3.57-1.592,5.143c-1.591,1.447-4.025,2.195-6.396,2.195
	c-2.371,0-4.807-0.748-6.397-2.195c-1.591-1.572-1.591-3.221-1.591-5.143v-11.73h1.497v11.381c0,1.699,0,3.496,1.219,4.744
	c1.153,1.197,3.461,1.822,5.272,1.822c1.809,0,4.118-0.625,5.272-1.822c1.218-1.248,1.218-3.045,1.218-4.744V34.891z"/>
<polygon fill="#231F20" points="186.19,53.711 184.692,53.711 184.692,36.012 178.609,36.012 178.609,34.891 192.275,34.891 
	192.275,36.012 186.19,36.012 "/>
<polygon fill="#231F20" points="215.089,34.891 216.743,34.891 223.67,44.426 230.597,34.891 232.251,34.891 224.418,45.674 
	224.418,53.711 222.922,53.711 222.922,45.674 "/>
<path fill="#231F20" d="M240.034,35.875h-2.062v5.324h-0.885v-5.324h-2.081v-0.887h5.028V35.875z M247.82,41.199h-0.883v-5.324
	h-0.032l-2.119,5.324h-0.58l-2.06-5.324h-0.033v5.324h-0.884v-6.211h1.489l1.783,4.469l1.845-4.469h1.474V41.199z"/>
</svg>
